<mxfile host="app.diagrams.net" agent="Mozilla/5.0 (Windows NT 10.0; Win64; x64; rv:137.0) Gecko/20100101 Firefox/137.0" version="26.0.16">
  <diagram name="Page-1" id="2YBvvXClWsGukQMizWep">
    <mxGraphModel dx="2284" dy="754" grid="1" gridSize="10" guides="1" tooltips="1" connect="1" arrows="1" fold="1" page="1" pageScale="1" pageWidth="850" pageHeight="1100" math="0" shadow="0">
      <root>
        <mxCell id="0" />
        <mxCell id="1" parent="0" />
        <mxCell id="vJoUyPEpwu-G5lvv9bwW-87" value="Host Client" style="shape=umlLifeline;perimeter=lifelinePerimeter;whiteSpace=wrap;html=1;container=0;dropTarget=0;collapsible=0;recursiveResize=0;outlineConnect=0;portConstraint=eastwest;newEdgeStyle={&quot;edgeStyle&quot;:&quot;elbowEdgeStyle&quot;,&quot;elbow&quot;:&quot;vertical&quot;,&quot;curved&quot;:0,&quot;rounded&quot;:0};fontStyle=1" parent="1" vertex="1">
          <mxGeometry x="-140" y="40" width="100" height="530" as="geometry" />
        </mxCell>
        <mxCell id="vJoUyPEpwu-G5lvv9bwW-88" value="" style="html=1;points=[];perimeter=orthogonalPerimeter;outlineConnect=0;targetShapes=umlLifeline;portConstraint=eastwest;newEdgeStyle={&quot;edgeStyle&quot;:&quot;elbowEdgeStyle&quot;,&quot;elbow&quot;:&quot;vertical&quot;,&quot;curved&quot;:0,&quot;rounded&quot;:0};fillColor=#dae8fc;strokeColor=#6c8ebf;" parent="1" vertex="1">
          <mxGeometry x="-95" y="360" width="10" height="190" as="geometry" />
        </mxCell>
        <mxCell id="aM9ryv3xv72pqoxQDRHE-1" value="Client" style="shape=umlLifeline;perimeter=lifelinePerimeter;whiteSpace=wrap;html=1;container=0;dropTarget=0;collapsible=0;recursiveResize=0;outlineConnect=0;portConstraint=eastwest;newEdgeStyle={&quot;edgeStyle&quot;:&quot;elbowEdgeStyle&quot;,&quot;elbow&quot;:&quot;vertical&quot;,&quot;curved&quot;:0,&quot;rounded&quot;:0};fontStyle=1" parent="1" vertex="1">
          <mxGeometry x="40" y="40" width="100" height="530" as="geometry" />
        </mxCell>
        <mxCell id="aM9ryv3xv72pqoxQDRHE-2" value="" style="html=1;points=[];perimeter=orthogonalPerimeter;outlineConnect=0;targetShapes=umlLifeline;portConstraint=eastwest;newEdgeStyle={&quot;edgeStyle&quot;:&quot;elbowEdgeStyle&quot;,&quot;elbow&quot;:&quot;vertical&quot;,&quot;curved&quot;:0,&quot;rounded&quot;:0};fillColor=#dae8fc;strokeColor=#6c8ebf;" parent="aM9ryv3xv72pqoxQDRHE-1" vertex="1">
          <mxGeometry x="45" y="70" width="10" height="100" as="geometry" />
        </mxCell>
        <mxCell id="aM9ryv3xv72pqoxQDRHE-3" value="&lt;div&gt;uploadImage&lt;/div&gt;" style="html=1;verticalAlign=bottom;startArrow=oval;endArrow=block;startSize=8;edgeStyle=elbowEdgeStyle;elbow=vertical;curved=0;rounded=0;labelBackgroundColor=none;" parent="aM9ryv3xv72pqoxQDRHE-1" edge="1">
          <mxGeometry relative="1" as="geometry">
            <mxPoint x="-25" y="70" as="sourcePoint" />
            <Array as="points">
              <mxPoint x="-25" y="70" />
            </Array>
            <mxPoint x="50" y="70" as="targetPoint" />
          </mxGeometry>
        </mxCell>
        <mxCell id="aM9ryv3xv72pqoxQDRHE-5" value="Server" style="shape=umlLifeline;perimeter=lifelinePerimeter;whiteSpace=wrap;html=1;container=0;dropTarget=0;collapsible=0;recursiveResize=0;outlineConnect=0;portConstraint=eastwest;newEdgeStyle={&quot;edgeStyle&quot;:&quot;elbowEdgeStyle&quot;,&quot;elbow&quot;:&quot;vertical&quot;,&quot;curved&quot;:0,&quot;rounded&quot;:0};fontStyle=1" parent="1" vertex="1">
          <mxGeometry x="220" y="40" width="100" height="530" as="geometry" />
        </mxCell>
        <mxCell id="aM9ryv3xv72pqoxQDRHE-6" value="" style="html=1;points=[];perimeter=orthogonalPerimeter;outlineConnect=0;targetShapes=umlLifeline;portConstraint=eastwest;newEdgeStyle={&quot;edgeStyle&quot;:&quot;elbowEdgeStyle&quot;,&quot;elbow&quot;:&quot;vertical&quot;,&quot;curved&quot;:0,&quot;rounded&quot;:0};fillColor=#f8cecc;strokeColor=#b85450;" parent="aM9ryv3xv72pqoxQDRHE-5" vertex="1">
          <mxGeometry x="45" y="80" width="10" height="90" as="geometry" />
        </mxCell>
        <mxCell id="vJoUyPEpwu-G5lvv9bwW-58" value="" style="html=1;points=[];perimeter=orthogonalPerimeter;outlineConnect=0;targetShapes=umlLifeline;portConstraint=eastwest;newEdgeStyle={&quot;edgeStyle&quot;:&quot;elbowEdgeStyle&quot;,&quot;elbow&quot;:&quot;vertical&quot;,&quot;curved&quot;:0,&quot;rounded&quot;:0};fillColor=#f8cecc;strokeColor=#b85450;" parent="aM9ryv3xv72pqoxQDRHE-5" vertex="1">
          <mxGeometry x="45" y="200" width="10" height="90" as="geometry" />
        </mxCell>
        <mxCell id="vJoUyPEpwu-G5lvv9bwW-59" value="" style="html=1;points=[];perimeter=orthogonalPerimeter;outlineConnect=0;targetShapes=umlLifeline;portConstraint=eastwest;newEdgeStyle={&quot;edgeStyle&quot;:&quot;elbowEdgeStyle&quot;,&quot;elbow&quot;:&quot;vertical&quot;,&quot;curved&quot;:0,&quot;rounded&quot;:0};fillColor=#f8cecc;strokeColor=#b85450;" parent="aM9ryv3xv72pqoxQDRHE-5" vertex="1">
          <mxGeometry x="45" y="310" width="10" height="170" as="geometry" />
        </mxCell>
        <mxCell id="aM9ryv3xv72pqoxQDRHE-7" value="&lt;div&gt;postImage&lt;/div&gt;" style="html=1;verticalAlign=bottom;endArrow=block;edgeStyle=elbowEdgeStyle;elbow=vertical;curved=0;rounded=0;dashed=1;dashPattern=8 8;" parent="1" source="aM9ryv3xv72pqoxQDRHE-1" target="aM9ryv3xv72pqoxQDRHE-5" edge="1">
          <mxGeometry relative="1" as="geometry">
            <mxPoint x="195" y="130" as="sourcePoint" />
            <Array as="points">
              <mxPoint x="180" y="120" />
            </Array>
          </mxGeometry>
        </mxCell>
        <mxCell id="vJoUyPEpwu-G5lvv9bwW-19" value="ML Model" style="shape=umlLifeline;perimeter=lifelinePerimeter;whiteSpace=wrap;html=1;container=0;dropTarget=0;collapsible=0;recursiveResize=0;outlineConnect=0;portConstraint=eastwest;newEdgeStyle={&quot;edgeStyle&quot;:&quot;elbowEdgeStyle&quot;,&quot;elbow&quot;:&quot;vertical&quot;,&quot;curved&quot;:0,&quot;rounded&quot;:0};fontStyle=1" parent="1" vertex="1">
          <mxGeometry x="400" y="40" width="100" height="530" as="geometry" />
        </mxCell>
        <mxCell id="vJoUyPEpwu-G5lvv9bwW-20" value="" style="html=1;points=[];perimeter=orthogonalPerimeter;outlineConnect=0;targetShapes=umlLifeline;portConstraint=eastwest;newEdgeStyle={&quot;edgeStyle&quot;:&quot;elbowEdgeStyle&quot;,&quot;elbow&quot;:&quot;vertical&quot;,&quot;curved&quot;:0,&quot;rounded&quot;:0};fillColor=#f8cecc;strokeColor=#b85450;" parent="vJoUyPEpwu-G5lvv9bwW-19" vertex="1">
          <mxGeometry x="45" y="339" width="10" height="30" as="geometry" />
        </mxCell>
        <mxCell id="vJoUyPEpwu-G5lvv9bwW-25" value="Spotify API/SDK" style="shape=umlLifeline;perimeter=lifelinePerimeter;whiteSpace=wrap;html=1;container=0;dropTarget=0;collapsible=0;recursiveResize=0;outlineConnect=0;portConstraint=eastwest;newEdgeStyle={&quot;edgeStyle&quot;:&quot;elbowEdgeStyle&quot;,&quot;elbow&quot;:&quot;vertical&quot;,&quot;curved&quot;:0,&quot;rounded&quot;:0};fontStyle=1" parent="1" vertex="1">
          <mxGeometry x="580" y="40" width="100" height="530" as="geometry" />
        </mxCell>
        <mxCell id="vJoUyPEpwu-G5lvv9bwW-26" value="" style="html=1;points=[];perimeter=orthogonalPerimeter;outlineConnect=0;targetShapes=umlLifeline;portConstraint=eastwest;newEdgeStyle={&quot;edgeStyle&quot;:&quot;elbowEdgeStyle&quot;,&quot;elbow&quot;:&quot;vertical&quot;,&quot;curved&quot;:0,&quot;rounded&quot;:0};fillColor=#d5e8d4;strokeColor=#82b366;" parent="vJoUyPEpwu-G5lvv9bwW-25" vertex="1">
          <mxGeometry x="45" y="419" width="10" height="91" as="geometry" />
        </mxCell>
        <mxCell id="vJoUyPEpwu-G5lvv9bwW-47" value="&lt;div&gt;alt&lt;/div&gt;" style="shape=umlFrame;whiteSpace=wrap;html=1;pointerEvents=0;recursiveResize=0;container=1;collapsible=0;width=50;height=30;" parent="1" vertex="1">
          <mxGeometry x="-70" y="90" width="450" height="250" as="geometry" />
        </mxCell>
        <mxCell id="vJoUyPEpwu-G5lvv9bwW-48" value="&lt;div&gt;[Remote Client Trigger]&lt;/div&gt;" style="text;html=1;" parent="vJoUyPEpwu-G5lvv9bwW-47" vertex="1">
          <mxGeometry width="100" height="20" relative="1" as="geometry">
            <mxPoint x="8" y="40" as="offset" />
          </mxGeometry>
        </mxCell>
        <mxCell id="vJoUyPEpwu-G5lvv9bwW-49" value="" style="line;strokeWidth=1;dashed=1;labelPosition=center;verticalLabelPosition=bottom;align=left;verticalAlign=top;spacingLeft=20;spacingTop=15;html=1;whiteSpace=wrap;" parent="vJoUyPEpwu-G5lvv9bwW-47" vertex="1">
          <mxGeometry y="125" width="450" height="10" as="geometry" />
        </mxCell>
        <mxCell id="vJoUyPEpwu-G5lvv9bwW-61" value="&lt;div&gt;pressButton&lt;/div&gt;" style="html=1;verticalAlign=bottom;startArrow=oval;endArrow=block;startSize=8;edgeStyle=elbowEdgeStyle;elbow=vertical;curved=0;rounded=0;labelBackgroundColor=none;" parent="vJoUyPEpwu-G5lvv9bwW-47" edge="1">
          <mxGeometry relative="1" as="geometry">
            <mxPoint x="265" y="150" as="sourcePoint" />
            <mxPoint x="340" y="150" as="targetPoint" />
            <Array as="points">
              <mxPoint x="265" y="150" />
            </Array>
          </mxGeometry>
        </mxCell>
        <mxCell id="vJoUyPEpwu-G5lvv9bwW-74" value="&lt;div&gt;saveImage&lt;/div&gt;" style="endArrow=classic;html=1;rounded=0;align=left;" parent="vJoUyPEpwu-G5lvv9bwW-47" edge="1">
          <mxGeometry x="-0.0025" width="50" height="50" relative="1" as="geometry">
            <mxPoint x="340.19696969696975" y="60" as="sourcePoint" />
            <mxPoint x="340" y="80" as="targetPoint" />
            <Array as="points">
              <mxPoint x="370" y="60" />
              <mxPoint x="370" y="70" />
              <mxPoint x="370" y="80" />
              <mxPoint x="340" y="80" />
            </Array>
            <mxPoint as="offset" />
          </mxGeometry>
        </mxCell>
        <mxCell id="vJoUyPEpwu-G5lvv9bwW-60" value="&lt;div&gt;loadImage(s)&lt;/div&gt;" style="edgeStyle=elbowEdgeStyle;rounded=0;orthogonalLoop=1;jettySize=auto;html=1;elbow=vertical;curved=0;align=left;" parent="1" source="aM9ryv3xv72pqoxQDRHE-5" edge="1">
          <mxGeometry x="-0.8901" y="9" relative="1" as="geometry">
            <mxPoint x="275" y="379.1111111111111" as="sourcePoint" />
            <mxPoint x="449.5" y="379.1111111111111" as="targetPoint" />
            <mxPoint as="offset" />
          </mxGeometry>
        </mxCell>
        <mxCell id="vJoUyPEpwu-G5lvv9bwW-69" style="edgeStyle=elbowEdgeStyle;rounded=0;orthogonalLoop=1;jettySize=auto;html=1;elbow=vertical;curved=0;" parent="1" edge="1">
          <mxGeometry relative="1" as="geometry">
            <mxPoint x="445" y="409" as="sourcePoint" />
            <mxPoint x="270" y="409" as="targetPoint" />
          </mxGeometry>
        </mxCell>
        <mxCell id="vJoUyPEpwu-G5lvv9bwW-78" value="&lt;div&gt;predictClass(es)&lt;/div&gt;" style="edgeLabel;html=1;align=right;verticalAlign=middle;resizable=0;points=[];" parent="vJoUyPEpwu-G5lvv9bwW-69" vertex="1" connectable="0">
          <mxGeometry x="0.4462" y="-1" relative="1" as="geometry">
            <mxPoint x="122" y="-8" as="offset" />
          </mxGeometry>
        </mxCell>
        <mxCell id="vJoUyPEpwu-G5lvv9bwW-70" value="sendAlbumName" style="edgeStyle=elbowEdgeStyle;rounded=0;orthogonalLoop=1;jettySize=auto;html=1;elbow=vertical;curved=0;align=left;" parent="1" edge="1">
          <mxGeometry x="-0.9441" y="10" relative="1" as="geometry">
            <mxPoint x="270.13636363636374" y="459.72727272727275" as="sourcePoint" />
            <mxPoint x="629.5" y="459.78787878787887" as="targetPoint" />
            <mxPoint as="offset" />
          </mxGeometry>
        </mxCell>
        <mxCell id="vJoUyPEpwu-G5lvv9bwW-72" value="determineAlbum" style="endArrow=classic;html=1;rounded=0;align=left;" parent="1" edge="1">
          <mxGeometry x="-0.0045" width="50" height="50" relative="1" as="geometry">
            <mxPoint x="270.19696969696975" y="420" as="sourcePoint" />
            <mxPoint x="269.8333333333335" y="440" as="targetPoint" />
            <Array as="points">
              <mxPoint x="300" y="420" />
              <mxPoint x="300" y="430" />
              <mxPoint x="300" y="440" />
              <mxPoint x="270" y="440" />
            </Array>
            <mxPoint as="offset" />
          </mxGeometry>
        </mxCell>
        <mxCell id="vJoUyPEpwu-G5lvv9bwW-73" value="&lt;div&gt;captureImage&lt;/div&gt;" style="endArrow=classic;html=1;rounded=0;align=left;" parent="1" edge="1">
          <mxGeometry x="-0.0025" width="50" height="50" relative="1" as="geometry">
            <mxPoint x="270.19696969696975" y="270" as="sourcePoint" />
            <mxPoint x="270" y="290" as="targetPoint" />
            <Array as="points">
              <mxPoint x="300" y="270" />
              <mxPoint x="300" y="280" />
              <mxPoint x="300" y="290" />
              <mxPoint x="270" y="290" />
            </Array>
            <mxPoint as="offset" />
          </mxGeometry>
        </mxCell>
        <mxCell id="vJoUyPEpwu-G5lvv9bwW-76" value="&lt;div&gt;sendAlbumID&lt;/div&gt;" style="edgeStyle=elbowEdgeStyle;rounded=0;orthogonalLoop=1;jettySize=auto;html=1;elbow=vertical;curved=0;align=right;" parent="1" target="vJoUyPEpwu-G5lvv9bwW-87" edge="1">
          <mxGeometry x="-0.9434" y="-9" relative="1" as="geometry">
            <mxPoint x="270.13636363636374" y="509.18181818181813" as="sourcePoint" />
            <mxPoint x="809.5" y="509.3333333333335" as="targetPoint" />
            <mxPoint as="offset" />
          </mxGeometry>
        </mxCell>
        <mxCell id="vJoUyPEpwu-G5lvv9bwW-77" value="&lt;div&gt;sendImage&lt;/div&gt;" style="edgeStyle=elbowEdgeStyle;rounded=0;orthogonalLoop=1;jettySize=auto;html=1;elbow=vertical;curved=0;dashed=1;dashPattern=8 8;align=right;" parent="1" target="vJoUyPEpwu-G5lvv9bwW-87" edge="1">
          <mxGeometry x="-0.9427" y="-10" relative="1" as="geometry">
            <mxPoint x="270.0000000000002" y="359.75" as="sourcePoint" />
            <mxPoint x="804.5" y="359.75" as="targetPoint" />
            <mxPoint as="offset" />
          </mxGeometry>
        </mxCell>
        <mxCell id="vJoUyPEpwu-G5lvv9bwW-81" style="edgeStyle=elbowEdgeStyle;rounded=0;orthogonalLoop=1;jettySize=auto;html=1;elbow=vertical;curved=0;" parent="1" source="vJoUyPEpwu-G5lvv9bwW-87" edge="1">
          <mxGeometry relative="1" as="geometry">
            <mxPoint x="809.5" y="530.1578947368421" as="sourcePoint" />
            <mxPoint x="629.9736842105262" y="530.1578947368421" as="targetPoint" />
          </mxGeometry>
        </mxCell>
        <mxCell id="vJoUyPEpwu-G5lvv9bwW-83" value="&lt;div&gt;requestAlbumPlayback&lt;/div&gt;" style="edgeLabel;html=1;align=left;verticalAlign=middle;resizable=0;points=[];" parent="vJoUyPEpwu-G5lvv9bwW-81" vertex="1" connectable="0">
          <mxGeometry x="-0.7108" y="-1" relative="1" as="geometry">
            <mxPoint x="-94" y="-11" as="offset" />
          </mxGeometry>
        </mxCell>
        <mxCell id="vJoUyPEpwu-G5lvv9bwW-82" value="streamAudio" style="edgeStyle=elbowEdgeStyle;rounded=0;orthogonalLoop=1;jettySize=auto;html=1;elbow=vertical;curved=0;align=right;" parent="1" target="vJoUyPEpwu-G5lvv9bwW-87" edge="1">
          <mxGeometry x="-0.9718" y="-10" relative="1" as="geometry">
            <mxPoint x="629.9594594594596" y="550.0540540540541" as="sourcePoint" />
            <mxPoint x="809.5" y="550.0540540540541" as="targetPoint" />
            <mxPoint as="offset" />
          </mxGeometry>
        </mxCell>
        <mxCell id="vJoUyPEpwu-G5lvv9bwW-84" value="" style="endArrow=classic;html=1;rounded=0;align=left;" parent="1" source="vJoUyPEpwu-G5lvv9bwW-88" edge="1">
          <mxGeometry x="-0.0025" width="50" height="50" relative="1" as="geometry">
            <mxPoint x="-154.80303030303025" y="550" as="sourcePoint" />
            <mxPoint x="-90" y="530" as="targetPoint" />
            <Array as="points">
              <mxPoint x="-125" y="550" />
              <mxPoint x="-125" y="530" />
            </Array>
            <mxPoint as="offset" />
          </mxGeometry>
        </mxCell>
        <mxCell id="vJoUyPEpwu-G5lvv9bwW-75" value="getAlbumID" style="edgeStyle=elbowEdgeStyle;rounded=0;orthogonalLoop=1;jettySize=auto;html=1;elbow=vertical;curved=0;align=right;" parent="1" edge="1" source="vJoUyPEpwu-G5lvv9bwW-25">
          <mxGeometry x="-0.9708" y="-10" relative="1" as="geometry">
            <mxPoint x="625" y="489.9090909090909" as="sourcePoint" />
            <mxPoint x="270.0454545454545" y="489.9090909090909" as="targetPoint" />
            <mxPoint as="offset" />
          </mxGeometry>
        </mxCell>
        <mxCell id="GXNExwCorNBhIgjwEoVI-1" value="&lt;div&gt;[Physical Button Trigger]&lt;/div&gt;" style="text;html=1;" vertex="1" parent="1">
          <mxGeometry x="-62" y="240" width="100" height="20" as="geometry" />
        </mxCell>
      </root>
    </mxGraphModel>
  </diagram>
</mxfile>
